<?xml version="1.0" encoding="UTF-8"?>
<svg version="1.1" xmlns="http://www.w3.org/2000/svg" width="2048" height="2048">
<path d="M0 0 C0.81304596 -0.00006042 1.62609192 -0.00012085 2.46377563 -0.00018311 C17.70675784 0.01593018 32.6557353 0.60328539 47.6184082 3.70556641 C50.89798053 4.36921333 54.19968879 4.88744813 57.5 5.4375 C65.32056297 6.8179903 72.66225994 9.24179208 80.13671875 11.8828125 C83.06660925 12.9092298 85.92658018 13.69041829 89 14.1875 C89 14.8475 89 15.5075 89 16.1875 C89.99 16.27 90.98 16.3525 92 16.4375 C95.73269012 16.96860421 98.54547259 18.32019106 101.84375 20.08984375 C104.12297102 21.25009938 106.42091553 22.15808752 108.8125 23.0625 C113.64610768 24.93767083 118.06620311 27.33349159 122.5546875 29.91796875 C124.74380627 31.05449207 126.59214509 31.72272801 129 32.1875 C129 32.8475 129 33.5075 129 34.1875 C130.31484375 34.57228516 130.31484375 34.57228516 131.65625 34.96484375 C135.05221262 36.20659176 137.53891872 37.6913831 140.5 39.75 C141.54414062 40.46285156 142.58828125 41.17570312 143.6640625 41.91015625 C144.2096582 42.28414551 144.75525391 42.65813477 145.31738281 43.04345703 C153.56889412 48.65381425 162.02416585 53.87002582 170.71875 58.765625 C175.28232568 61.33544917 179.81087187 63.96510828 184.34301758 66.58984375 C195.17568648 72.86200174 206.04356549 79.05729029 217.01049805 85.09155273 C228.52508971 91.43453985 228.52508971 91.43453985 233.5625 94.375 C234.83287109 95.10783203 234.83287109 95.10783203 236.12890625 95.85546875 C236.74636719 96.29503906 237.36382813 96.73460937 238 97.1875 C238 97.8475 238 98.5075 238 99.1875 C238.70253906 99.45820313 239.40507813 99.72890625 240.12890625 100.0078125 C243.13495174 101.24294956 246.02709248 102.61666049 248.9375 104.0625 C249.93652344 104.55492187 250.93554688 105.04734375 251.96484375 105.5546875 C255 107.1875 255 107.1875 257.96484375 109.1796875 C261.09192142 111.24830774 264.23844721 112.83375316 267.625 114.4375 C272.33866309 116.71959059 276.68081343 119.19996612 281 122.1875 C285.12421448 125.0351719 289.2349458 127.38669334 293.75 129.5625 C298.79756378 132.00947114 303.52850093 134.66400905 308.25 137.6875 C322.86416149 147.02412242 338.02346922 155.52053564 353.25 163.8125 C360.47303103 167.74696657 367.60224698 171.82234074 374.6875 176 C375.58436523 176.5273877 376.48123047 177.05477539 377.40527344 177.59814453 C381.58530238 180.07812798 385.68447561 182.62083203 389.703125 185.35546875 C393.35716351 187.82081026 397.06577453 189.81085371 401.0625 191.6875 C408.38452204 195.22748214 415.41589144 199.21257324 422.4375 203.3125 C423.44369385 203.89837891 424.4498877 204.48425781 425.48657227 205.08789062 C430.79795695 208.21021568 435.96340772 211.46909106 441.0637207 214.92382812 C443.41261789 216.45678637 445.82939865 217.70105763 448.375 218.875 C451.53602567 220.33509281 453.58334566 221.71158166 456 224.1875 C457.87929801 225.14363407 459.76097035 226.09572406 461.66015625 227.01171875 C464.33241728 228.35454107 466.9163406 229.80628154 469.5 231.3125 C470.78390625 232.05886719 470.78390625 232.05886719 472.09375 232.8203125 C472.7228125 233.27148438 473.351875 233.72265625 474 234.1875 C474 234.8475 474 235.5075 474 236.1875 C474.61875 236.331875 475.2375 236.47625 475.875 236.625 C478 237.1875 478 237.1875 480 238.1875 C480 238.8475 480 239.5075 480 240.1875 C480.70125 240.435 481.4025 240.6825 482.125 240.9375 C486.21638696 242.7163639 489.73887775 244.91332266 492.88671875 248.09375 C495.74755753 250.92814849 498.93791161 253.21260245 502.171875 255.6015625 C503.07679688 256.38660156 503.07679688 256.38660156 504 257.1875 C504 257.8475 504 258.5075 504 259.1875 C504.66 259.1875 505.32 259.1875 506 259.1875 C506 259.8475 506 260.5075 506 261.1875 C506.66 261.1875 507.32 261.1875 508 261.1875 C508 261.8475 508 262.5075 508 263.1875 C508.8971875 263.5896875 508.8971875 263.5896875 509.8125 264 C511.99847854 265.18667406 513.41332594 266.28349113 515 268.1875 C515 268.8475 515 269.5075 515 270.1875 C515.66 270.1875 516.32 270.1875 517 270.1875 C517 270.8475 517 271.5075 517 272.1875 C517.99 272.5175 518.98 272.8475 520 273.1875 C520 273.8475 520 274.5075 520 275.1875 C520.66 275.1875 521.32 275.1875 522 275.1875 C522 275.8475 522 276.5075 522 277.1875 C522.66 277.1875 523.32 277.1875 524 277.1875 C524.33 278.5075 524.66 279.8275 525 281.1875 C525.66 281.1875 526.32 281.1875 527 281.1875 C527 281.8475 527 282.5075 527 283.1875 C527.66 283.1875 528.32 283.1875 529 283.1875 C529 283.8475 529 284.5075 529 285.1875 C529.66 285.1875 530.32 285.1875 531 285.1875 C532.02798299 286.8370541 533.02179855 288.50794657 534 290.1875 C535.47194637 292.04343238 536.97355851 293.87612276 538.5 295.6875 C546 304.5875 546 304.5875 546 308.1875 C546.66 308.1875 547.32 308.1875 548 308.1875 C551 313.9375 551 313.9375 551 316.1875 C551.66 316.1875 552.32 316.1875 553 316.1875 C553.50789063 317.20328125 554.01578125 318.2190625 554.5390625 319.265625 C554.86970703 319.9265918 555.20035156 320.58755859 555.54101562 321.26855469 C556.26731667 322.72181111 556.99256706 324.17559308 557.71679688 325.62988281 C559.40986635 329.0265098 561.11064994 332.41693701 562.8671875 335.78125 C563.40601563 336.8228125 563.94484375 337.864375 564.5 338.9375 C564.9846875 339.86046875 565.469375 340.7834375 565.96875 341.734375 C567 344.1875 567 344.1875 567 348.1875 C567.66 348.1875 568.32 348.1875 569 348.1875 C578.20781734 372.47349071 578.20781734 372.47349071 579 381.1875 C579.66 381.1875 580.32 381.1875 581 381.1875 C581.22786458 383.23828125 581.45572917 385.2890625 581.68359375 387.33984375 C581.81886614 389.19890229 581.81886614 389.19890229 583 390.1875 C583.14115161 392.85808851 583.04247107 395.51182238 583 398.1875 C583.66 398.1875 584.32 398.1875 585 398.1875 C585.57075888 402.33551693 586.12009834 406.48579635 586.65405273 410.63867188 C586.83610254 412.03485747 587.02287525 413.43043989 587.21557617 414.82519531 C588.57076257 424.66926934 589.2282468 434.47944204 589.54972839 444.40983582 C589.59189836 445.70866485 589.63406832 447.00749388 589.67751616 448.34568137 C590.17194604 464.58481006 590.16452195 480.82774196 590.17470181 497.07294309 C590.17868488 501.75816808 590.18825441 506.44338284 590.19691467 511.12860107 C590.21643957 522.3747761 590.22670595 533.62095171 590.23564246 544.86713937 C590.23916912 549.12197262 590.24331268 553.37680516 590.24748212 557.63163782 C590.26591378 576.45427111 590.28166021 595.27690449 590.28938007 614.09954548 C590.29128913 618.67858697 590.29320961 623.25762845 590.29516602 627.83666992 C590.29564976 628.97439778 590.2961335 630.11212563 590.2966319 631.28433009 C590.30493451 649.71886 590.3302925 668.1533251 590.36274669 686.58782671 C590.39595429 705.60817578 590.4138404 724.62849199 590.41702431 743.64887017 C590.41917478 754.290672 590.42770839 764.93237877 590.45348549 775.57415199 C590.47537954 784.63193269 590.48315162 793.68959509 590.47351871 802.74739925 C590.46902992 807.35116933 590.47053648 811.95469627 590.49028015 816.55843163 C590.56065386 833.96549881 590.27262588 851.13963328 588.15812683 868.436203 C588.03508852 869.45262669 588.03508852 869.45262669 587.90956459 870.48958419 C586.89809068 878.61672096 585.32866819 886.34250212 583 894.1875 C582.64290556 895.59170602 582.29338067 896.99786899 581.953125 898.40625 C578.43499615 912.36341691 573.37862573 925.85564571 568 939.1875 C567.34 939.1875 566.68 939.1875 566 939.1875 C565.90203125 939.87328125 565.8040625 940.5590625 565.703125 941.265625 C564.85048608 944.80881342 563.40834667 947.6929087 561.75 950.9375 C561.43426025 951.55584717 561.11852051 952.17419434 560.79321289 952.8112793 C555.16125448 963.78193945 548.71851997 973.81386027 541.60546875 983.87890625 C540.24835635 985.83037445 538.95833674 987.80467244 537.6875 989.8125 C537.130625 990.59625 536.57375 991.38 536 992.1875 C535.34 992.1875 534.68 992.1875 534 992.1875 C533.61146851 993.30378784 533.61146851 993.30378784 533.21508789 994.44262695 C531.96452314 997.26764193 530.69447373 998.90037174 528.55859375 1001.10546875 C527.89279297 1001.80220703 527.22699219 1002.49894531 526.54101562 1003.21679688 C525.84685547 1003.92900391 525.15269531 1004.64121094 524.4375 1005.375 C523.05927066 1006.80413347 521.68287449 1008.23503782 520.30859375 1009.66796875 C519.39291626 1010.60999146 519.39291626 1010.60999146 518.45874023 1011.57104492 C516.91261013 1013.13959452 516.91261013 1013.13959452 516 1015.1875 C515.34 1015.1875 514.68 1015.1875 514 1015.1875 C514 1015.8475 514 1016.5075 514 1017.1875 C512.35546875 1018.80859375 512.35546875 1018.80859375 510.1875 1020.625 C507.17536735 1023.16089332 507.17536735 1023.16089332 504.36328125 1025.91015625 C503 1027.1875 503 1027.1875 501 1027.1875 C501 1027.8475 501 1028.5075 501 1029.1875 C499.3203125 1030.6953125 499.3203125 1030.6953125 497.125 1032.3125 C496.04605469 1033.12074219 496.04605469 1033.12074219 494.9453125 1033.9453125 C493 1035.1875 493 1035.1875 491 1035.1875 C491 1035.8475 491 1036.5075 491 1037.1875 C490.34 1037.1875 489.68 1037.1875 489 1037.1875 C489 1037.8475 489 1038.5075 489 1039.1875 C487.02 1039.8475 485.04 1040.5075 483 1041.1875 C483 1041.8475 483 1042.5075 483 1043.1875 C482.34 1043.1875 481.68 1043.1875 481 1043.1875 C481 1043.8475 481 1044.5075 481 1045.1875 C478.35261084 1046.6481285 477.10551666 1047.1875 474 1047.1875 C474 1047.8475 474 1048.5075 474 1049.1875 C473.34 1049.1875 472.68 1049.1875 472 1049.1875 C472 1049.8475 472 1050.5075 472 1051.1875 C469.35261084 1052.6481285 468.10551666 1053.1875 465 1053.1875 C465 1053.8475 465 1054.5075 465 1055.1875 C464.46632813 1055.47882813 463.93265625 1055.77015625 463.3828125 1056.0703125 C456.60327075 1059.80023339 449.95036319 1063.71556615 443.390625 1067.8203125 C428.51740656 1077.10602455 413.32611038 1086.00771808 397.75 1094.0625 C392.10452175 1096.98357363 386.75562086 1100.16488018 381.45288086 1103.66674805 C376.50728312 1106.9152234 371.43616871 1109.91651728 366.3125 1112.875 C365.55275879 1113.31440918 364.79301758 1113.75381836 364.01025391 1114.20654297 C359.00404107 1117.08245247 353.94965881 1119.86224558 348.87670898 1122.6184082 C323.09552114 1136.67094626 323.09552114 1136.67094626 298.0625 1152 C293.96004233 1154.65635686 289.76913987 1156.83691229 285.37109375 1158.95703125 C283.08303493 1160.14440939 281.04684025 1161.45974723 278.9375 1162.9375 C274.80510631 1165.77942689 270.50079744 1168.11966107 266.0625 1170.4375 C259.75740933 1173.73143564 253.48088221 1177.06729574 247.25 1180.5 C246.49984619 1180.90831055 245.74969238 1181.31662109 244.97680664 1181.73730469 C244.2677417 1182.12950195 243.55867676 1182.52169922 242.828125 1182.92578125 C242.2084082 1183.26649658 241.58869141 1183.60721191 240.95019531 1183.95825195 C238.86743559 1185.21588485 238.86743559 1185.21588485 236.63500977 1187.11645508 C233.87278888 1189.28748442 231.1006255 1190.91549209 228.01171875 1192.5859375 C227.44014038 1192.89745255 226.86856201 1193.20896759 226.27966309 1193.52992249 C225.05422253 1194.19765138 223.82769898 1194.86339593 222.60018921 1195.52731323 C219.33108145 1197.29662164 216.07134686 1199.08297267 212.8125 1200.87109375 C212.15291794 1201.23290237 211.49333588 1201.594711 210.81376648 1201.96748352 C203.53203936 1205.97488638 196.36189829 1210.16810741 189.19921875 1214.38378906 C183.73284505 1217.59962934 178.23900672 1220.74642819 172.6875 1223.8125 C162.09174327 1229.69536532 151.90791965 1236.29054258 141.7890625 1242.953125 C141.14533691 1243.37464844 140.50161133 1243.79617188 139.83837891 1244.23046875 C138.1170903 1245.36062159 136.40205578 1246.50028366 134.6875 1247.640625 C132 1249.1875 132 1249.1875 129 1249.1875 C129 1249.8475 129 1250.5075 129 1251.1875 C127.68 1251.1875 126.36 1251.1875 125 1251.1875 C125 1251.8475 125 1252.5075 125 1253.1875 C113.53085924 1258.77689138 101.94741822 1263.71613522 90 1268.1875 C89.32662598 1268.4438623 88.65325195 1268.70022461 87.95947266 1268.96435547 C76.19063048 1273.4321303 64.52126431 1276.78837393 52.10791016 1278.8359375 C49.88502429 1279.20667594 47.66733086 1279.60174485 45.44921875 1280 C43.90377822 1280.27158774 42.35820771 1280.542437 40.8125 1280.8125 C40.12494629 1280.9357666 39.43739258 1281.0590332 38.72900391 1281.18603516 C26.40000119 1283.27408129 13.96761151 1283.38969044 1.5 1283.375 C0.31594574 1283.37509064 0.31594574 1283.37509064 -0.89202881 1283.37518311 C-15.98762006 1283.35875866 -30.80359245 1282.74358559 -45.62060547 1279.66943359 C-48.89936679 1279.00533808 -52.20038742 1278.48743543 -55.5 1277.9375 C-63.91045053 1276.44104367 -71.83695526 1273.7887383 -79.87036133 1270.93212891 C-82.02122983 1270.18007698 -84.18383871 1269.475248 -86.3515625 1268.7734375 C-91.64161061 1267.01750915 -96.78351181 1264.9298914 -101.9375 1262.8125 C-102.86240234 1262.43867187 -103.78730469 1262.06484375 -104.74023438 1261.6796875 C-110.97940857 1259.12630437 -117.01370638 1256.2866888 -123 1253.1875 C-123 1252.5275 -123 1251.8675 -123 1251.1875 C-124.32 1251.1875 -125.64 1251.1875 -127 1251.1875 C-127 1250.5275 -127 1249.8675 -127 1249.1875 C-127.55171875 1249.08695313 -128.1034375 1248.98640625 -128.671875 1248.8828125 C-131.55958957 1248.02037426 -133.69674852 1246.67397839 -136.25 1245.0625 C-136.79664307 1244.7212207 -137.34328613 1244.37994141 -137.90649414 1244.02832031 C-140.81287416 1242.21081597 -143.70682085 1240.37399345 -146.59912109 1238.53417969 C-159.15926588 1230.54946959 -171.8014918 1222.96458812 -184.921875 1215.9375 C-190.08592735 1213.16485444 -195.12308789 1210.20953243 -200.15112305 1207.19946289 C-204.68169458 1204.50620346 -209.26333372 1201.91555873 -213.87890625 1199.37109375 C-214.48441818 1199.03697983 -215.08993011 1198.70286591 -215.71379089 1198.35862732 C-218.74701891 1196.68665505 -221.78370861 1195.02136041 -224.82495117 1193.36401367 C-226.49714722 1192.44519409 -226.49714722 1192.44519409 -228.203125 1191.5078125 C-229.19989258 1190.96398926 -230.19666016 1190.42016602 -231.22363281 1189.85986328 C-234.03157245 1188.16848212 -236.46565945 1186.26013995 -239 1184.1875 C-241.35921908 1182.76086634 -243.71313356 1181.39235718 -246.125 1180.0625 C-246.81513184 1179.67707031 -247.50526367 1179.29164062 -248.21630859 1178.89453125 C-252.83768975 1176.33087544 -257.50797545 1173.87220401 -262.20092773 1171.44262695 C-269.46712843 1167.68036109 -276.46200594 1163.76275527 -283.27905273 1159.23486328 C-287.20537794 1156.64131671 -291.19301693 1154.50538976 -295.44067383 1152.49731445 C-298.06572735 1151.15386199 -300.47538453 1149.64707418 -302.94140625 1148.03125 C-308.82231401 1144.25154414 -314.85612988 1140.77187464 -320.94073486 1137.33462524 C-324.02908247 1135.58989586 -327.11261096 1133.83671299 -330.1953125 1132.08203125 C-330.79358856 1131.74155258 -331.39186462 1131.40107391 -332.00827026 1131.05027771 C-337.6472626 1127.83303391 -343.20524838 1124.49634515 -348.7265625 1121.08203125 C-351.36042337 1119.5576607 -353.97854632 1118.18961344 -356.70703125 1116.8515625 C-362.32024929 1114.08028659 -367.68675946 1110.95296736 -373.0625 1107.75 C-373.99126953 1107.20279297 -374.92003906 1106.65558594 -375.87695312 1106.09179688 C-380.23776987 1103.50590905 -384.52439044 1100.86637019 -388.71484375 1098.01171875 C-392.50712685 1095.45029758 -396.36571381 1093.38332999 -400.5 1091.4375 C-408.56993307 1087.51617423 -416.25516638 1083.06035081 -423.93603516 1078.43115234 C-425.93694019 1077.225497 -427.94225725 1076.02757174 -429.94921875 1074.83203125 C-435.95517449 1071.24895438 -441.92979042 1067.62049526 -447.875 1063.9375 C-452.83920308 1060.86938932 -457.85981301 1057.95018448 -463 1055.1875 C-463 1054.5275 -463 1053.8675 -463 1053.1875 C-463.598125 1053.043125 -464.19625 1052.89875 -464.8125 1052.75 C-466.56150404 1052.3002561 -468.28677023 1051.75857659 -470 1051.1875 C-470 1050.5275 -470 1049.8675 -470 1049.1875 C-470.66 1049.1875 -471.32 1049.1875 -472 1049.1875 C-472 1048.5275 -472 1047.8675 -472 1047.1875 C-472.598125 1047.043125 -473.19625 1046.89875 -473.8125 1046.75 C-475.56150404 1046.3002561 -477.28677023 1045.75857659 -479 1045.1875 C-479 1044.5275 -479 1043.8675 -479 1043.1875 C-479.66 1043.1875 -480.32 1043.1875 -481 1043.1875 C-481 1042.5275 -481 1041.8675 -481 1041.1875 C-482.98 1040.5275 -484.96 1039.8675 -487 1039.1875 C-487 1038.5275 -487 1037.8675 -487 1037.1875 C-487.66 1037.1875 -488.32 1037.1875 -489 1037.1875 C-489 1036.5275 -489 1035.8675 -489 1035.1875 C-489.804375 1034.81625 -489.804375 1034.81625 -490.625 1034.4375 C-493.5823982 1032.88097463 -496.29724051 1031.15314327 -499 1029.1875 C-499 1028.5275 -499 1027.8675 -499 1027.1875 C-499.556875 1026.960625 -500.11375 1026.73375 -500.6875 1026.5 C-503.63723273 1024.82582737 -505.6373884 1022.60917689 -508 1020.1875 C-508.763125 1019.630625 -509.52625 1019.07375 -510.3125 1018.5 C-511.1478125 1017.8503125 -511.1478125 1017.8503125 -512 1017.1875 C-512 1016.5275 -512 1015.8675 -512 1015.1875 C-512.66 1015.1875 -513.32 1015.1875 -514 1015.1875 C-515.41015625 1013.7890625 -515.41015625 1013.7890625 -517.0625 1011.8125 C-520.61206431 1007.61417078 -524.31977733 1003.59035341 -528.08203125 999.58203125 C-530.00810563 997.17738034 -531.02480663 995.09244109 -532 992.1875 C-532.66 992.1875 -533.32 992.1875 -534 992.1875 C-535.54236738 990.15383799 -536.97124441 988.12627684 -538.375 986 C-541.1060151 981.91713243 -543.9153201 978.01698509 -547 974.1875 C-548.3896742 971.87137633 -549.71127799 969.55838927 -551 967.1875 C-551.44214844 966.383125 -551.88429688 965.57875 -552.33984375 964.75 C-553.34503379 962.91559484 -554.34480487 961.07821248 -555.33984375 959.23828125 C-556.5249178 957.0605334 -557.72740378 954.89222365 -558.94140625 952.73046875 C-559.57949219 951.58191406 -560.21757813 950.43335938 -560.875 949.25 C-561.47054688 948.18910156 -562.06609375 947.12820313 -562.6796875 946.03515625 C-564 943.1875 -564 943.1875 -564 939.1875 C-564.66 939.1875 -565.32 939.1875 -566 939.1875 C-566.37511719 938.18332031 -566.75023437 937.17914062 -567.13671875 936.14453125 C-567.50422241 935.16250732 -567.50422241 935.16250732 -567.87915039 934.16064453 C-568.42475225 932.70230069 -568.96949109 931.24363372 -569.51342773 929.78466797 C-571.139413 925.43576127 -572.83047286 921.12050382 -574.5625 916.8125 C-579.59764786 903.71463949 -582.84923833 890.03479105 -585 876.1875 C-585.12714044 875.37386871 -585.25428087 874.56023743 -585.38527405 873.72195065 C-588.44921917 853.23711763 -588.43992425 832.88848468 -588.40683305 812.2300297 C-588.40204078 807.17389585 -588.41466407 802.11779781 -588.42485046 797.06167603 C-588.44192799 787.19080019 -588.44290146 777.31998832 -588.43763756 767.44910156 C-588.43357311 759.4131952 -588.43506621 751.37730754 -588.44038582 743.34140205 C-588.44113424 742.19157629 -588.44188266 741.04175052 -588.44265376 739.85708155 C-588.44418547 737.52012757 -588.44572382 735.18317358 -588.44726873 732.84621961 C-588.46095435 710.99623957 -588.45558436 689.14629547 -588.44408352 667.29631627 C-588.43415993 647.38069276 -588.44708377 627.46516226 -588.47101771 607.54955309 C-588.49550087 587.01962571 -588.50499377 566.48974149 -588.49836498 545.95979983 C-588.49489255 534.46616794 -588.4969726 522.97260745 -588.51461601 511.47898674 C-588.5294541 501.69280318 -588.52982414 491.90674128 -588.5125451 482.1205598 C-588.50412619 477.14418498 -588.50165707 472.16802637 -588.51719666 467.19166374 C-588.58503813 443.87404831 -587.50348138 421.26297987 -584 398.1875 C-583.34 398.1875 -582.68 398.1875 -582 398.1875 C-582.020625 396.888125 -582.04125 395.58875 -582.0625 394.25 C-582.08399454 392.89584367 -582.07148199 391.53993917 -582 390.1875 C-581.67 389.8575 -581.34 389.5275 -581 389.1875 C-580.76924918 387.84002916 -580.58846937 386.48372435 -580.4375 385.125 C-580.293125 383.825625 -580.14875 382.52625 -580 381.1875 C-579.34 381.1875 -578.68 381.1875 -578 381.1875 C-577.896875 380.053125 -577.79375 378.91875 -577.6875 377.75 C-576.37395322 367.54338651 -571.62821848 357.75707303 -568 348.1875 C-567.34 348.1875 -566.68 348.1875 -566 348.1875 C-565.87753906 347.46175781 -565.75507812 346.73601562 -565.62890625 345.98828125 C-563.30345493 335.63207878 -556.7770354 325.63488762 -552 316.1875 C-551.34 316.1875 -550.68 316.1875 -550 316.1875 C-548.92474806 313.53521188 -547.90543849 310.90381546 -547 308.1875 C-546.34 308.1875 -545.68 308.1875 -545 308.1875 C-544.5978125 307.3521875 -544.5978125 307.3521875 -544.1875 306.5 C-541.52383649 301.31286581 -538.25852259 296.90508954 -534.64453125 292.34765625 C-532.8711901 290.10498299 -532.8711901 290.10498299 -531.1875 287.125 C-530.795625 286.485625 -530.40375 285.84625 -530 285.1875 C-529.34 285.1875 -528.68 285.1875 -528 285.1875 C-528 284.5275 -528 283.8675 -528 283.1875 C-527.34 283.1875 -526.68 283.1875 -526 283.1875 C-526 282.5275 -526 281.8675 -526 281.1875 C-525.34 281.1875 -524.68 281.1875 -524 281.1875 C-523.67 279.8675 -523.34 278.5475 -523 277.1875 C-522.34 277.1875 -521.68 277.1875 -521 277.1875 C-521 276.5275 -521 275.8675 -521 275.1875 C-520.34 275.1875 -519.68 275.1875 -519 275.1875 C-518.67 274.1975 -518.34 273.2075 -518 272.1875 C-517.34 272.1875 -516.68 272.1875 -516 272.1875 C-516 271.5275 -516 270.8675 -516 270.1875 C-515.34 270.1875 -514.68 270.1875 -514 270.1875 C-513.731875 269.589375 -513.46375 268.99125 -513.1875 268.375 C-512.00082594 266.18902146 -510.90400887 264.77417406 -509 263.1875 C-508.34 263.1875 -507.68 263.1875 -507 263.1875 C-507 262.5275 -507 261.8675 -507 261.1875 C-506.34 261.1875 -505.68 261.1875 -505 261.1875 C-505 260.5275 -505 259.8675 -505 259.1875 C-504.34 259.1875 -503.68 259.1875 -503 259.1875 C-503 258.5275 -503 257.8675 -503 257.1875 C-501.12890625 255.48828125 -501.12890625 255.48828125 -498.5625 253.5 C-497.19738281 252.43845703 -497.19738281 252.43845703 -495.8046875 251.35546875 C-494.87914062 250.64003906 -493.95359375 249.92460938 -493 249.1875 C-492.17757812 248.52363281 -491.35515625 247.85976563 -490.5078125 247.17578125 C-489.74210938 246.56089844 -488.97640625 245.94601562 -488.1875 245.3125 C-487.50042969 244.75820313 -486.81335938 244.20390625 -486.10546875 243.6328125 C-483.8270462 242.06877476 -481.59393275 241.12004825 -479 240.1875 C-479 239.5275 -479 238.8675 -479 238.1875 C-476 236.1875 -476 236.1875 -473 236.1875 C-473 235.5275 -473 234.8675 -473 234.1875 C-471.12890625 232.85546875 -471.12890625 232.85546875 -468.5625 231.375 C-467.65242187 230.84519531 -466.74234375 230.31539062 -465.8046875 229.76953125 C-463.27744567 228.34399791 -460.7365095 226.94857755 -458.1875 225.5625 C-455.69716514 224.1997818 -453.66264694 222.91597193 -451.4375 221.125 C-449.35525594 219.46988293 -447.6736125 218.46740436 -445.30859375 217.3359375 C-441.29313425 215.36291373 -437.46119131 213.17325226 -433.625 210.875 C-425.9625141 206.33163174 -418.27122536 201.83946851 -410.5625 197.375 C-409.47340332 196.74102295 -408.38430664 196.1070459 -407.26220703 195.45385742 C-401.65658285 192.21167403 -396.01901421 189.16517463 -390.20483398 186.31616211 C-387.0579403 184.70525639 -384.19212666 182.83761376 -381.25 180.875 C-370.89605877 174.08832389 -360.06144461 168.21259939 -349.1875 162.3125 C-339.66320855 157.14339916 -330.29038945 151.76452567 -321 146.1875 C-320.37077637 145.81028809 -319.74155273 145.43307617 -319.09326172 145.04443359 C-316.61979846 143.56112719 -314.14702448 142.0766844 -311.67553711 140.59008789 C-292.33656989 128.96617515 -292.33656989 128.96617515 -282.50390625 123.59765625 C-278.05322148 121.09110836 -273.6724939 118.46193272 -269.2890625 115.83984375 C-265.17908461 113.39978267 -261.0262148 111.16416303 -256.73461914 109.06079102 C-254.73619472 108.05468769 -252.86619455 106.9205214 -251 105.6875 C-240.81733746 99.1875 -240.81733746 99.1875 -237 99.1875 C-237 98.5275 -237 97.8675 -237 97.1875 C-234.92366695 95.74741251 -232.86676755 94.45648555 -230.6875 93.1875 C-230.01452881 92.78942139 -229.34155762 92.39134277 -228.64819336 91.98120117 C-222.76678035 88.5443951 -216.74455722 85.40406713 -210.6953125 82.27587891 C-200.804632 77.11595184 -191.24115488 71.39414278 -181.63330078 65.73095703 C-178.31574371 63.78643674 -174.97397691 61.88986298 -171.625 60 C-160.19891921 53.48476224 -148.78882042 46.88737457 -138.359375 38.84375 C-131.72641509 34.1875 -131.72641509 34.1875 -128 34.1875 C-128 33.5275 -128 32.8675 -128 32.1875 C-126.98550781 31.76339844 -125.97101563 31.33929688 -124.92578125 30.90234375 C-121.26552429 29.33392502 -117.73099417 27.56831872 -114.1875 25.75 C-108.56917411 22.89923371 -102.89244291 20.41166002 -97 18.1875 C-96.16597656 17.82269531 -95.33195312 17.45789063 -94.47265625 17.08203125 C-92 16.1875 -92 16.1875 -88 16.1875 C-88 15.5275 -88 14.8675 -88 14.1875 C-86.515 13.80658203 -86.515 13.80658203 -85 13.41796875 C-76.90414698 11.41469987 -76.90414698 11.41469987 -69.0625 8.625 C-63.38878878 6.36771704 -57.229749 5.59528781 -51.23681641 4.57128906 C-48.961791 4.18094417 -46.68995015 3.77484312 -44.41796875 3.3671875 C-42.88296225 3.09810269 -41.34780894 2.82985382 -39.8125 2.5625 C-38.78213623 2.3778418 -38.78213623 2.3778418 -37.73095703 2.18945312 C-25.23589419 0.07233974 -12.63497009 -0.01443868 0 0 Z M252 558.1875 C249.09862836 561.72003005 246.5025485 565.36416202 244 569.1875 C243.33484375 570.18136719 242.6696875 571.17523437 241.984375 572.19921875 C231.36663692 588.67292305 223.71425707 607.75637896 223.9375 627.625 C223.94652344 628.67558594 223.95554687 629.72617187 223.96484375 630.80859375 C223.97644531 631.59363281 223.98804688 632.37867188 224 633.1875 C228.86262912 631.7779342 232.95515046 629.61692027 237.25 627 C238.76618915 626.09251595 240.28316888 625.18635194 241.80078125 624.28125 C242.62916504 623.78625 243.45754883 623.29125 244.31103516 622.78125 C249.32667931 619.80847671 254.38420635 616.90814828 259.4375 614 C260.54174316 613.36368652 261.64598633 612.72737305 262.78369141 612.07177734 C266.18875838 610.10970982 269.59433526 608.14852974 273 606.1875 C304.74203288 588.09415904 304.74203288 588.09415904 336 569.1875 C335.43963006 550.96521528 335.43963006 550.96521528 327 535.1875 C301.09892298 513.64316607 270.00365925 538.0574243 252 558.1875 Z M340 607.1875 C338.15636816 608.22026305 336.31261551 609.25281046 334.46875 610.28515625 C323.62872339 616.37044195 312.86797971 622.58176652 302.14624023 628.87280273 C294.75348363 633.19782089 287.29742494 637.39936339 279.8125 641.5625 C272.62812267 645.56142843 265.52912369 649.61211833 258.5703125 653.9921875 C252.38828306 657.84137564 246.04770076 661.4350778 239.74975586 665.08984375 C198.31360814 688.22144322 198.31360814 688.22144322 161 717.1875 C161 717.8475 161 718.5075 161 719.1875 C160.15308594 719.54908203 160.15308594 719.54908203 159.2890625 719.91796875 C136.60752541 732.49731953 122.69796866 766.93663611 115.9375 790.25 C97.30411088 857.24104157 89.54600743 928.53544583 80.375 997.375 C80.26048492 998.23078644 80.14596985 999.08657288 80.02798462 999.96829224 C70.93343758 1053.09867685 70.93343758 1053.09867685 83.4140625 1103.40625 C87.41621397 1108.45709357 92.59544542 1111.97824844 99 1113.1875 C123.77623866 1115.26704042 146.62127552 1103.42875866 168 1092.1875 C169.03898437 1091.6414209 170.07796875 1091.0953418 171.1484375 1090.53271484 C183.02757812 1084.2678029 194.90456594 1077.99996815 206.42749023 1071.0949707 C212.45856343 1067.48130812 218.56533554 1064.00570617 224.67907715 1060.53448486 C236.35753188 1053.8998355 247.91865796 1047.09405027 259.41796875 1040.15234375 C266.77765761 1035.71051416 274.16894624 1031.32262071 281.5625 1026.9375 C282.9089489 1026.13853162 284.25538442 1025.33954068 285.60180664 1024.54052734 C291.90584303 1020.800023 298.21136655 1017.06203201 304.51777649 1013.32553101 C307.38588667 1011.62593249 310.25350864 1009.92551129 313.12106323 1008.22497559 C315.11545567 1007.0427076 317.11056739 1005.86166061 319.10571289 1004.68066406 C326.1451218 1000.50893558 333.14249062 996.27835349 340.10327148 991.97631836 C342.54063106 990.47117435 344.98370563 988.97680307 347.43359375 987.4921875 C364.94266737 976.87594272 382.25331531 965.9758702 399 954.1875 C399.5971582 953.77048828 400.19431641 953.35347656 400.80957031 952.92382812 C412.68365039 944.62814929 424.21040406 935.95917348 434.8671875 926.12890625 C436.73803098 924.42595898 438.64823862 922.82681198 440.625 921.25 C441.40875 920.569375 442.1925 919.88875 443 919.1875 C443 918.5275 443 917.8675 443 917.1875 C443.66 917.1875 444.32 917.1875 445 917.1875 C447.58283093 914.75875841 449.75479846 911.92565169 452 909.1875 C452.78117187 908.24261719 453.56234375 907.29773437 454.3671875 906.32421875 C480.69789874 873.7422942 485.14602397 834.77837715 481.23168945 794.1706543 C480.59304953 788.49370925 479.81656665 782.84129526 479 777.1875 C478.82259277 775.9176123 478.64518555 774.64772461 478.46240234 773.33935547 C474.04564109 741.95978527 467.75351287 710.87280736 461.69775391 679.777771 C461.05146115 676.45229176 460.40935498 673.1260455 459.76953125 669.79931641 C452.90777457 621.31289767 452.90777457 621.31289767 427.25 582 C401.51493812 567.64775395 361.77193653 594.91260457 340 607.1875 Z " fill="#FEFEFE" transform="translate(1023,382.8125)"/>
<path d="M0 0 C1.61227876 3.22455753 1.46900928 6.503749 1 10 C-0.09416098 12.81901736 -1.4537392 15.40449079 -3 18 C-3.66 18 -4.32 18 -5 18 C-5.16193848 19.09006348 -5.16193848 19.09006348 -5.32714844 20.20214844 C-6.05028107 23.20907874 -7.10839581 25.16561655 -8.765625 27.765625 C-9.60673828 29.10173828 -9.60673828 29.10173828 -10.46484375 30.46484375 C-11.05394531 31.38394531 -11.64304687 32.30304688 -12.25 33.25 C-15.96571872 39.10330073 -19.59758484 44.95219157 -22.91894531 51.03955078 C-24.74359109 54.34847254 -26.76400673 57.53466026 -28.765625 60.73828125 C-29.9312417 62.87401565 -30.46508146 64.64876741 -31 67 C-27.85569268 68.89837271 -24.7092732 70.79321804 -21.5625 72.6875 C-20.68400391 73.21794922 -19.80550781 73.74839844 -18.90039062 74.29492188 C-13.96626501 77.26268009 -9.01781984 80.11495722 -3.89038086 82.73754883 C-1.63936289 84.24084393 -0.3927196 85.68300359 1 88 C0.81458474 93.00621196 -0.56464309 96.65871159 -3 101 C-3.66 101 -4.32 101 -5 101 C-5 101.66 -5 102.32 -5 103 C-9.1645904 105.0822952 -11.5111331 105.18073324 -16 104 C-19.05763737 102.43544748 -21.92535936 100.60688474 -24.8125 98.75 C-34.33572731 91.64105558 -34.33572731 91.64105558 -45 88 C-47.97 93.28 -50.94 98.56 -54 104 C-54.66 104 -55.32 104 -56 104 C-56.11472656 104.73605469 -56.22945312 105.47210937 -56.34765625 106.23046875 C-57.01524249 109.06471214 -57.89859398 110.85809748 -59.4375 113.3125 C-59.96988281 114.17101563 -60.50226563 115.02953125 -61.05078125 115.9140625 C-61.69402344 116.93242188 -62.33726563 117.95078125 -63 119 C-64.26841258 121.02345703 -65.53495208 123.04807658 -66.80102539 125.07299805 C-67.66379105 126.45090943 -68.52875648 127.82744665 -69.39624023 129.20239258 C-71.39509594 132.37964575 -73.34542528 135.56930531 -75.1953125 138.8359375 C-78.15434412 144.02385009 -78.15434412 144.02385009 -81 146 C-83.75672754 146.32338535 -86.20752689 146.18616487 -89 146 C-91.01124138 141.97751725 -90.21604913 137.74266888 -89 133.5625 C-88.67 132.716875 -88.34 131.87125 -88 131 C-87.34 131 -86.68 131 -86 131 C-85.887771 130.26716797 -85.77554199 129.53433594 -85.65991211 128.77929688 C-84.97269802 125.88501452 -84.02276506 124.03553996 -82.44140625 121.53125 C-81.9014502 120.66113281 -81.36149414 119.79101562 -80.80517578 118.89453125 C-80.20946777 117.93933594 -79.61375977 116.98414063 -79 116 C-77.69190306 113.82574432 -76.38875302 111.64850689 -75.08984375 109.46875 C-74.7517569 108.9015625 -74.41367004 108.334375 -74.06533813 107.75 C-73.37194151 106.58661163 -72.67885916 105.42303588 -71.98608398 104.25927734 C-71.28655824 103.08563765 -70.58570923 101.91278566 -69.88354492 100.74072266 C-65.62570295 93.63144383 -61.56174435 86.48852213 -58 79 C-63.10926679 75.88651107 -68.23263306 72.84032055 -73.5 70 C-74.85738281 69.25556641 -74.85738281 69.25556641 -76.2421875 68.49609375 C-78.10872995 67.48350769 -79.98968037 66.49711363 -81.8828125 65.53515625 C-88.67782427 61.88598326 -88.67782427 61.88598326 -90.25 57.5625 C-89.75302935 50.48066818 -88.32764315 46.70524616 -83.046875 42.06640625 C-80.0767754 40.51900703 -78.32778595 40.53947607 -75 41 C-72.26453962 42.29069584 -69.81374102 43.93191245 -67.3125 45.625 C-65.89997522 46.54533315 -64.48590468 47.46329817 -63.0703125 48.37890625 C-62.38098633 48.82766113 -61.69166016 49.27641602 -60.98144531 49.73876953 C-55.93811465 52.94895265 -50.68475246 56.10508251 -45 58 C-35.95896555 43.80185272 -35.95896555 43.80185272 -28 29 C-27.34 29 -26.68 29 -26 29 C-25.89131592 28.2769165 -25.78263184 27.55383301 -25.6706543 26.80883789 C-24.47956746 21.82032166 -21.49495278 17.75840795 -18.8125 13.4375 C-18.24724609 12.49197266 -17.68199219 11.54644531 -17.09960938 10.57226562 C-8.80771693 -2.86762877 -8.80771693 -2.86762877 0 0 Z " fill="#FDFDFD" transform="translate(1301,1230)"/>
<path d="M0 0 C2.25 0.9375 2.25 0.9375 4.25 3.9375 C4.43329901 6.45634158 4.50630624 8.86158903 4.48046875 11.37890625 C4.48001053 12.10238754 4.47955231 12.82586884 4.4790802 13.5712738 C4.47606248 15.09855797 4.46819051 16.6258392 4.45581055 18.15307617 C4.43754104 20.49473938 4.43530102 22.83600729 4.43554688 25.17773438 C4.43063191 26.66146176 4.42480369 28.14518647 4.41796875 29.62890625 C4.41685593 30.33100723 4.4157431 31.03310822 4.41459656 31.75648499 C4.36608638 36.70532724 4.36608638 36.70532724 3.25 38.9375 C4.90997896 38.00618713 6.56984908 37.07467988 8.22924805 36.14233398 C9.67011014 35.33329377 11.11169033 34.52553121 12.55395508 33.71899414 C16.14577202 31.70557309 19.71967483 29.67170886 23.25390625 27.55859375 C23.87571777 27.19056641 24.4975293 26.82253906 25.13818359 26.44335938 C26.85045269 25.42668508 28.5562721 24.39917146 30.26171875 23.37109375 C33.29086079 21.9178975 34.95100305 21.42148818 38.25 21.9375 C40.66898661 24.67901816 41.28086976 26.21206076 41.125 29.875 C39.57517182 35.29939863 37.49319989 39.21036496 33.25 42.9375 C31.05792991 44.1331746 28.82348431 45.25289679 26.5625 46.3125 C21.53494777 48.72186174 16.84648508 51.32389377 12.3125 54.578125 C9.73581247 56.27639633 7.0159016 57.57430564 4.25 58.9375 C4.25169189 60.60135742 4.25169189 60.60135742 4.25341797 62.29882812 C4.24972588 66.44419538 4.20674386 70.58841222 4.15234375 74.73339844 C4.13426018 76.52173414 4.1266013 78.31020869 4.12988281 80.09863281 C4.14986641 98.02392119 4.14986641 98.02392119 -1.1081543 103.72045898 C-3.96551547 105.83851779 -6.21254249 106.47028863 -9.75 106.9375 C-10.74 106.6075 -11.73 106.2775 -12.75 105.9375 C-13.94090706 102.36477882 -13.87957177 99.48496816 -13.8828125 95.71484375 C-13.88376923 95.0135585 -13.88472595 94.31227325 -13.88571167 93.58973694 C-13.88639133 92.10954702 -13.88455195 90.62935409 -13.88037109 89.14916992 C-13.87501176 86.87997781 -13.88032737 84.6109829 -13.88671875 82.34179688 C-13.88605809 80.9036454 -13.88477717 79.46549404 -13.8828125 78.02734375 C-13.88168457 76.71628662 -13.88055664 75.40522949 -13.87939453 74.05444336 C-13.75 70.9375 -13.75 70.9375 -12.75 68.9375 C-19.55954344 72.59695937 -26.27754689 76.37881364 -32.92578125 80.32421875 C-38.46880999 83.4905685 -42.2194374 85.56543871 -48.75 84.9375 C-50.75 82.9375 -50.75 82.9375 -51.1875 79.3125 C-51.03363736 74.3255403 -49.18499271 70.52277365 -45.75 66.9375 C-40.33043393 63.0939954 -34.38037865 60.0018484 -28.5625 56.8125 C-27.00607073 55.95652817 -25.45006905 55.09977831 -23.89453125 54.2421875 C-22.81486084 53.64809082 -22.81486084 53.64809082 -21.71337891 53.04199219 C-20.06055045 52.11219911 -18.43827226 51.12839691 -16.82421875 50.1328125 C-14.75 48.9375 -14.75 48.9375 -12.75 48.9375 C-12.77094727 47.8230249 -12.79189453 46.7085498 -12.81347656 45.56030273 C-12.88619407 41.40255721 -12.93191446 37.24486727 -12.96972656 33.08666992 C-12.98977001 31.29132618 -13.01701251 29.49604713 -13.05175781 27.70092773 C-13.10059849 25.1116535 -13.1230412 22.5232466 -13.140625 19.93359375 C-13.16127014 19.13851913 -13.18191528 18.34344452 -13.20318604 17.52427673 C-13.20544215 11.84703736 -12.01035446 8.60942132 -8.75 3.9375 C-4.01618705 -0.09127698 -4.01618705 -0.09127698 0 0 Z " fill="#FDFDFD" transform="translate(1385.75,1031.0625)"/>
<path d="M0 0 C2.42868849 2.42868849 2.37537649 3.2705504 2.5 6.625 C2.5515625 7.44226562 2.603125 8.25953125 2.65625 9.1015625 C1.35220523 14.86109356 -1.95134682 18.60091978 -6.78271484 21.90039062 C-10.12306387 23.83786482 -13.51246805 25.65660639 -16.9375 27.4375 C-18.77090968 28.41682392 -20.6008188 29.40248718 -22.43070984 30.3883667 C-23.63178994 31.03477294 -24.83402112 31.67904523 -26.03742981 32.32110596 C-30.63863241 34.77988254 -35.12345905 37.38672732 -39.5625 40.125 C-44.19250824 42.9611292 -48.876523 45.54158629 -53.765625 47.90625 C-55.92387947 48.9627382 -58.02537152 50.08178566 -60.125 51.25 C-60.846875 51.64960937 -61.56875 52.04921875 -62.3125 52.4609375 C-64.52267151 53.72664618 -66.69909545 55.02868771 -68.875 56.3515625 C-70.29165322 57.19273098 -71.70831999 58.03387664 -73.125 58.875 C-73.79418457 59.29297852 -74.46336914 59.71095703 -75.15283203 60.14160156 C-79.8020232 62.87264308 -82.56537032 63.36924436 -88 62 C-88.16413806 60.14888744 -88.27935788 58.29341261 -88.375 56.4375 C-88.44460938 55.40496094 -88.51421875 54.37242188 -88.5859375 53.30859375 C-87.73643295 48.51172473 -85.67780227 46.1202083 -82 43 C-77.99129811 40.35813567 -73.80564852 38.11557305 -69.5625 35.875 C-68.35614597 35.2241015 -67.15067217 34.57156922 -65.94604492 33.91748047 C-63.49080259 32.58511577 -61.0325579 31.25856021 -58.57226562 29.93554688 C-53.27500046 27.0769204 -48.04440937 24.10106622 -42.8125 21.125 C-40.93895005 20.06354086 -39.06525659 19.002335 -37.19140625 17.94140625 C-36.31371582 17.44398926 -35.43602539 16.94657227 -34.53173828 16.43408203 C-29.51592019 13.59291371 -24.49663926 10.75809682 -19.46484375 7.9453125 C-17.21922999 6.68452823 -14.98162938 5.40932053 -12.75390625 4.1171875 C-11.78324219 3.56289062 -10.81257813 3.00859375 -9.8125 2.4375 C-8.99394531 1.96183594 -8.17539063 1.48617188 -7.33203125 0.99609375 C-4.66294379 -0.14396873 -2.87377549 -0.34292111 0 0 Z " fill="#FDFDFD" transform="translate(1300,1123)"/>
<path d="M0 0 C2.36092149 2.36092149 2.31949234 2.96250484 2.375 6.1875 C2.2249614 10.86870424 1.24651302 14.52698608 -2 18 C-5.16359551 20.33601301 -8.52627794 22.1670573 -12 24 C-13.70850933 24.93717923 -15.41683897 25.8746861 -17.125 26.8125 C-18.04539062 27.31007813 -18.96578125 27.80765625 -19.9140625 28.3203125 C-30.47066045 34.06630885 -40.877912 40.07444083 -51.26782227 46.11499023 C-56.28194598 49.02391218 -61.32653839 51.85694404 -66.44140625 54.5859375 C-70.46785075 56.81123965 -74.36856638 59.24835265 -78.2734375 61.6796875 C-81.17545041 63.08496023 -82.8247224 63.44737588 -86 63 C-88.58215672 60.41784328 -88.29794465 59.27296873 -88.3125 55.6875 C-88.32925781 54.74261719 -88.34601563 53.79773437 -88.36328125 52.82421875 C-87.79482482 48.40492844 -86.18113905 45.92376246 -82.6875 43.19140625 C-81.800625 42.65386719 -80.91375 42.11632813 -80 41.5625 C-79.02289062 40.96824219 -78.04578125 40.37398437 -77.0390625 39.76171875 C-72.40925106 37.07785633 -67.72093049 34.51924094 -63 32 C-57.99289672 29.26806929 -53.04436134 26.44953832 -48.125 23.5625 C-41.44801694 19.654228 -34.66947711 15.95735722 -27.84375 12.31640625 C-26.7609375 11.73761719 -25.678125 11.15882812 -24.5625 10.5625 C-22.93828125 9.69625 -22.93828125 9.69625 -21.28125 8.8125 C-17.01133683 6.4538813 -12.87545793 3.89337046 -8.75390625 1.28515625 C-5.56678726 -0.20216595 -3.47813321 -0.39624302 0 0 Z " fill="#FDFDFC" transform="translate(1423,1167)"/>
<path d="M0 0 C2.1875 1.5 2.1875 1.5 3.125 4.25 C3.23161659 9.79406264 1.26701834 13.97960611 -1.8125 18.5 C-3.90625 20.08984375 -3.90625 20.08984375 -6.3125 21.4375 C-7.2096875 21.94667969 -8.106875 22.45585938 -9.03125 22.98046875 C-9.9490625 23.48191406 -10.866875 23.98335937 -11.8125 24.5 C-12.6271875 24.94988281 -13.441875 25.39976563 -14.28125 25.86328125 C-16.04521266 26.82964968 -17.81240078 27.79014386 -19.58203125 28.74609375 C-23.56843078 30.91041466 -27.53520714 33.10890634 -31.5 35.3125 C-32.27408203 35.74272461 -33.04816406 36.17294922 -33.84570312 36.61621094 C-38.8426468 39.39666798 -43.83058661 42.19271648 -48.8125 45 C-54.67997055 48.30521114 -60.55445635 51.59757846 -66.4375 54.875 C-67.18386719 55.29201172 -67.93023438 55.70902344 -68.69921875 56.13867188 C-80.91235234 62.93236597 -80.91235234 62.93236597 -85.8125 62.5 C-87.67372475 59.37656536 -87.9978192 57.4616974 -87.5 53.875 C-87.40074219 53.09898438 -87.30148437 52.32296875 -87.19921875 51.5234375 C-86.8125 49.5 -86.8125 49.5 -85.8125 47.5 C-85.1525 47.5 -84.4925 47.5 -83.8125 47.5 C-83.8125 46.51 -83.8125 45.52 -83.8125 44.5 C-82.95253418 44.00971313 -82.95253418 44.00971313 -82.07519531 43.50952148 C-69.09922255 36.12290566 -69.09922255 36.12290566 -56.1875 28.625 C-51.82970124 26.07274988 -47.42427149 23.62866952 -42.984375 21.22265625 C-32.35207817 15.44821918 -21.77880815 9.658146 -11.609375 3.09375 C-7.74165229 0.88979628 -4.46684307 -0.79410544 0 0 Z " fill="#FEFEFD" transform="translate(1421.8125,1237.5)"/>
</svg>
